PathFileType	4	(X/Y/Z)	C:/Users/beibeiliu/ov580/test_trc\sequence.3_training_dense_right.trc
DataRate	CameraRate	NumFrames	NumMarkers	Units	OrigDataRate	OrigDataStartFrame	OrigNumFrames
120	120	16	19	mm	120	80	319
Frame#	Time	ThumbCMC			ThumbMCP			ThumbIP			ThumbTip			IndexMCP			IndexPIP			IndexTip			MiddleMCP			MiddlePIP			MiddleTip			RingMCP			RingPIP			RingTip			PinkyMCP			PinkyPIP			PinkyTip			BackHand1			BackHand2			BackHand3	
		X0	Y0	Z0	X1	Y1	Z1	X2	Y2	Z2	X3	Y3	Z3	X4	Y4	Z4	X5	Y5	Z5	X6	Y6	Z6	X7	Y7	Z7	X8	Y8	Z8	X9	Y9	Z9	X10	Y10	Z10	X11	Y11	Z11	X12	Y12	Z12	X13	Y13	Z13	X14	Y14	Z14	X15	Y15	Z15	X16	Y16	Z16	X17	Y17	Z17	X18	Y18	Z18	
79	0.658333	202.272	-22.9246	-14.247	192.345	-23.0049	-45.302	196.325	-15.4722	-65.4118	209.336	-2.82014	-84.345	189.697	25.1768	-54.962	194.58	7.72054	-76.0629	199.943	-15.2291	-58.6702	208.322	24.1965	-60.1035	211.927	1.26562	-78.8283	218.852	-16.3879	-48.0842	227.934	18.5021	-61.726	225.918	-9.09743	-71.0303	230.625	-18.827	-44.0398	246.505	13.4139	-63.4753	236.891	-8.15047	-66.1201	238.65	-20.3998	-40.6428	240.645	16.0022	-13.038	244.61	-0.33354	5.2418	218.406	2.09045	0.306575	
80	0.666667	198.277	-25.1754	-16.4874	189.405	-25.9045	-51.1329	192.319	-18.9402	-72.6027	204.086	-9.81698	-93.6561	186.083	21.9658	-61.8959	187.403	1.77993	-81.4626	198.34	-19.1858	-62.5653	203.876	19.4835	-68.4596	210.476	-4.59179	-83.2411	214.294	-19.0203	-53.9145	222.24	16.4509	-68.0873	221.736	-9.84771	-75.1727	225.124	-20.7848	-48.3268	237.653	13.2247	-65.9318	235.527	-12.1773	-68.8466	235.09	-17.3892	-41.9904	231.748	16.8427	-18.1679	239.334	1.08283	0.425849	211.706	1.93977	-4.62374	
81	0.675	194.151	-26.6873	-20.9403	187.792	-31.0698	-53.3332	188.994	-24.736	-76.4487	203.946	-13.7662	-91.9548	177.267	14.5543	-68.0227	183.267	-5.63202	-85.7146	194.775	-24.2211	-63.09	199.821	15.2175	-77.5065	208.138	-11.7569	-84.3145	209.787	-20.4931	-55.1463	218.095	12.1559	-75.7096	217.765	-16.0947	-77.0706	225.295	-21.5486	-49.8599	233.306	9.9878	-71.7042	233.435	-14.1215	-72.0125	229.92	-19.6137	-46.6654	226.602	16.2017	-22.7561	236.419	4.12324	-2.31098	208.216	4.70922	-10.2613	
82	0.683333	188.143	-29.4041	-25.0463	185.888	-34.9546	-56.3764	189.69	-27.4831	-79.833	203.488	-18.8388	-97.0443	177.497	8.5338	-76.251	183.276	-11.6732	-90.8052	194.35	-26.1838	-68.9233	194.499	9.23157	-79.9873	200.672	-16.0191	-90.7462	207.476	-22.1895	-55.1259	213.474	6.52425	-80.6573	216.158	-20.2291	-77.6701	220.084	-22.9304	-53.4553	229.404	9.37676	-73.1335	231.476	-16.5446	-73.65	226.034	-19.9381	-49.3843	219.636	19.6594	-31.4074	225.628	7.93005	-7.21264	199.045	4.39426	-17.011	
83	0.691667	189.15	-29.2126	-25.7708	185.791	-40.1614	-59.5881	189.769	-36.2054	-81.0932	204.357	-25.9295	-100.375	175.444	2.50724	-79.9433	184.271	-22.488	-93.8815	191.57	-32.7611	-65.9379	194.437	5.10254	-85.0424	204.766	-21.2595	-92.2891	207.094	-26.0615	-59.8828	210.201	3.86058	-80.8622	218.957	-20.859	-81.7115	215.547	-23.369	-51.5296	227.065	3.86554	-78.0281	227.988	-19.0692	-72.1276	223.366	-19.4229	-49.4763	214.873	20.737	-34.3526	223.288	9.33614	-8.08499	193.076	5.48661	-19.6111	
84	0.7	187.212	-30.6508	-27.4936	188.904	-41.5183	-58.4125	193.297	-41.949	-84.0695	208.089	-33.3117	-98.0712	171.648	-7.90051	-86.5568	189.112	-28.0698	-95.5751	194.787	-35.7206	-67.3589	193.201	-3.06381	-87.0531	208.79	-30.0319	-89.9982	209.238	-26.6873	-57.199	210.344	-3.73543	-86.229	224.384	-25.7991	-79.5436	215.121	-25.0322	-52.5779	227.443	5.58631	-76.594	233.679	-20.279	-73.1373	221.877	-19.5136	-50.2318	204.772	18.0488	-40.0974	213.978	12.8726	-13.3855	189.441	4.65048	-25.9055	
85	0.708333	185.878	-31.3883	-29.5234	190.684	-47.7135	-56.9786	198.911	-45.5087	-80.2908	212.996	-42.2163	-98.6439	175.812	-14.012	-87.0851	191.991	-35.4014	-97.2815	198.039	-40.3276	-66.4636	195.258	-12.628	-92.3996	213.116	-33.0183	-91.1961	208.385	-29.7961	-55.4225	217.177	-7.07178	-86.5543	222.997	-29.955	-78.6301	220.045	-25.155	-49.1125	228.675	-1.84529	-78.4943	234.116	-22.8201	-70.9447	220.173	-18.3329	-47.1803	203.597	15.8766	-40.5611	210.967	11.9307	-13.0052	187.491	2.86968	-25.0042	
86	0.716667	184.241	-34.2605	-29.6869	192.745	-53.8229	-53.8216	201.662	-54.2382	-80.3615	218.341	-49.7577	-95.6025	179.773	-21.8316	-91.8359	196.137	-40.5287	-96.6164	202.271	-41.5205	-63.3264	200.138	-15.7032	-92.0364	217.932	-39.5764	-86.1279	208.107	-32.3051	-54.5705	220.062	-13.3671	-86.797	225.124	-35.3542	-73.0051	215.412	-28.1267	-47.5306	229.649	-4.66919	-76.8129	233.325	-27.1897	-68.1332	222.461	-24.4055	-46.1476	203.327	14.1586	-45.5792	205.767	15.7279	-16.1816	182.55	2.18358	-31.2897	
87	0.725	185.769	-35.7726	-26.2667	196.027	-54.2342	-54.9176	207.147	-58.9894	-77.412	225.464	-50.6625	-93.5617	185.224	-27.0947	-91.6895	201.927	-47.0892	-93.8778	202.86	-50.423	-62.8693	204.061	-23.9993	-92.2838	218.914	-45.4187	-83.0951	213.606	-35.1651	-53.0163	220.915	-17.5955	-85.2576	231.305	-37.1937	-69.8824	220.105	-31.7348	-45.9877	234.237	-7.16143	-75.8082	237.122	-28.3158	-65.5948	226.609	-24.0865	-41.2715	203.316	14.3578	-45.1332	204.039	12.7591	-19.8681	183.505	-1.42778	-30.3234	
88	0.733333	186.342	-36.4452	-24.1876	198.533	-59.4918	-49.6814	211.126	-60.3397	-69.8416	229.522	-52.8411	-85.43	190.011	-31.6405	-89.4901	210.172	-52.3951	-86.9849	204.241	-49.0623	-56.932	211.017	-25.9175	-90.7223	225.884	-46.8459	-80.3196	213.666	-37.7882	-49.3175	222.646	-23.363	-83.0567	232.222	-41.0143	-65.8108	222.979	-30.0937	-40.4028	233.487	-9.60258	-74.5095	241.726	-30.9927	-61.5759	227.483	-27.0486	-37.99	202.365	9.04646	-50.011	200.536	12.31	-22.7115	181.28	-2.78562	-33.8606	
89	0.741667	186.949	-37.5084	-28.8268	201.852	-59.9788	-46.0392	215.825	-65.6066	-67.7743	233.684	-59.1462	-78.5854	194.169	-39.0353	-87.7063	210.73	-59.455	-84.2619	209.922	-48.5313	-52.8138	214.01	-30.1588	-87.1441	228.563	-52.5162	-73.6394	213.73	-39.5508	-47.538	227.324	-26.9133	-81.1128	237.929	-42.0533	-64.4813	223.647	-36.2995	-40.7197	240.134	-12.857	-72.4106	244.219	-33.5074	-62.2621	234.198	-34.2029	-38.1606	206.051	9.52759	-47.7915	203.549	13.3714	-23.6701	180.331	-5.23128	-38.0441	
90	0.75	187.228	-39.4613	-25.7772	204.282	-63.3209	-45.5281	220.542	-69.0491	-65.296	241.867	-65.3181	-76.0196	198.878	-46.6006	-87.6727	219.06	-61.0629	-78.9429	211.238	-53.6291	-50.8863	218.668	-33.2457	-85.528	232.715	-56.0985	-71.1507	220.661	-43.7438	-44.8742	233.912	-26.5638	-78.0172	239.953	-46.6623	-57.5642	226.214	-35.4536	-36.5455	242.487	-15.5685	-69.2764	250.906	-35.5732	-56.228	237.315	-36.9239	-37.2414	206.926	4.99986	-52.0947	200.612	10.7584	-20.9605	181.432	-6.91901	-39.6792	
91	0.758333	189.818	-36.6969	-26.8227	205.783	-64.7589	-43.3504	222.362	-70.2483	-54.5409	244.306	-71.1775	-68.5366	207.389	-47.3846	-84.9876	222.299	-66.714	-70.5842	212.69	-53.5512	-47.0812	224.832	-38.9985	-83.3387	237.519	-59.3997	-64.0059	221.926	-44.7265	-41.8044	238.484	-32.8169	-75.6702	245.87	-49.5679	-52.6922	229.321	-40.7772	-35.3469	250.253	-17.8172	-65.8859	252.46	-39.9506	-51.2196	239.502	-39.8128	-33.1644	211.988	4.63504	-52.9335	204.887	12.6503	-24.1154	185.803	-7.2116	-38.3874	
92	0.766667	190.688	-38.5663	-28.1919	208.594	-61.6824	-38.6366	224.385	-74.7167	-51.234	246.372	-70.2277	-61.1838	209.48	-52.476	-82.1711	224.945	-70.6884	-66.3241	216.033	-54.259	-43.6988	228.683	-42.7138	-81.7624	238.824	-63.8291	-62.5339	228.945	-46.5215	-39.2438	241.541	-36.668	-72.4679	249.481	-53.2186	-54.4675	232.244	-39.8386	-29.8762	254.893	-25.6484	-63.7319	255.62	-43.2863	-51.5202	238.946	-41.9751	-29.0447	216.973	3.67005	-51.2436	209.109	13.556	-23.7344	190.933	-7.9746	-39.4966	
93	0.775	192.665	-36.9755	-27.8147	209.019	-65.6186	-34.6741	228.479	-76.3757	-50.479	251.76	-78.6124	-56.5323	214.379	-54.0363	-80.3637	226.37	-74.6836	-65.1958	218.891	-54.9528	-40.9321	230.818	-45.9088	-79.4853	244.921	-65.5635	-57.2966	227.388	-48.9091	-37.334	247.632	-40.877	-69.3247	251.422	-56.8564	-51.1182	235.46	-49.3824	-30.7767	257.822	-28.8348	-59.7877	259.775	-47.4967	-45.1485	241.19	-42.8839	-26.2878	225.079	2.1325	-52.3862	210.53	10.2709	-23.6528	194.708	-6.86398	-45.0981	
94	0.783333	195.519	-36.1633	-24.5628	209.988	-66.4967	-30.1532	230.191	-81.5919	-44.1159	255.964	-79.71	-49.957	221.982	-58.4146	-77.3785	231.11	-76.9253	-58.0405	217.447	-61.3321	-37.5093	237.995	-52.6702	-76.6048	245.759	-71.2876	-53.337	229.373	-50.9131	-34.6346	253.864	-46.5569	-66.7444	255.568	-61.7205	-45.7356	240.591	-50.9953	-24.8446	259.237	-33.2111	-56.7106	259.33	-53.3329	-42.043	240.163	-44.2057	-22.9464	231.269	-2.87064	-51.0341	220.124	8.15489	-30.0344	197.539	-7.47422	-43.3141	
